<svg width="20" height="12" viewBox="0 0 20 12" fill="none" xmlns="http://www.w3.org/2000/svg">
<path d="M19.2688 4.00088L16.0434 0.742192C15.966 0.664077 15.8738 0.602074 15.7722 0.559762C15.6707 0.517451 15.5617 0.495667 15.4517 0.495667C15.3417 0.495667 15.2327 0.517451 15.1312 0.559762C15.0296 0.602074 14.9374 0.664077 14.86 0.742192C14.7047 0.898345 14.6176 1.10958 14.6176 1.32976C14.6176 1.54994 14.7047 1.76117 14.86 1.91732L17.827 4.90932H0.833425C0.612387 4.90932 0.400402 4.99712 0.244105 5.15342C0.087807 5.30972 0 5.5217 0 5.74274H0C0 5.96378 0.087807 6.17577 0.244105 6.33206C0.400402 6.48836 0.612387 6.57617 0.833425 6.57617H17.877L14.86 9.58483C14.7819 9.66231 14.7198 9.75449 14.6775 9.85605C14.6352 9.95761 14.6134 10.0665 14.6134 10.1766C14.6134 10.2866 14.6352 10.3955 14.6775 10.4971C14.7198 10.5986 14.7819 10.6908 14.86 10.7683C14.9374 10.8464 15.0296 10.9084 15.1312 10.9507C15.2327 10.993 15.3417 11.0148 15.4517 11.0148C15.5617 11.0148 15.6707 10.993 15.7722 10.9507C15.8738 10.9084 15.966 10.8464 16.0434 10.7683L19.2688 7.53461C19.737 7.0658 20 6.43032 20 5.76774C20 5.10517 19.737 4.46969 19.2688 4.00088Z" fill="white"/>
</svg>
