<svg width="14" height="16" viewBox="0 0 14 16" fill="none" xmlns="http://www.w3.org/2000/svg">
<path d="M3.58761 3.73155C4.617 3.73799 5.45486 2.90375 5.4615 1.87561C5.46522 0.843396 4.63199 0.00351421 3.60249 1.83163e-05C2.57028 -0.00449601 1.73222 0.826032 1.72927 1.85573C1.72419 2.88974 2.5537 3.72973 3.58758 3.73155H3.58761Z" fill="#fff"/>
<path d="M2.25025 4.4966C2.25973 4.48543 2.27 4.47482 2.27971 4.4641L0.996859 3.18114L0.48877 3.68923L1.90571 5.10616C1.98087 4.88259 2.09598 4.67663 2.25027 4.4966H2.25025Z" fill="#fff"/>
<path d="M5.83863 7.70243C6.0526 7.9216 6.36342 8.0402 6.69004 7.99418L9.93082 7.5363C10.2088 7.49714 10.4432 7.34614 10.5961 7.13555L10.1583 8.30994C10.0871 8.50134 10.1846 8.71442 10.3758 8.78564C10.5671 8.85696 10.7803 8.75957 10.8515 8.56816L12.0881 5.24879C12.1593 5.05739 12.0618 4.84431 11.8706 4.77309C11.6793 4.70176 11.4662 4.79916 11.3949 4.99057L10.7825 6.63456C10.7888 6.56155 10.7875 6.48694 10.7769 6.41133C10.7002 5.86712 10.1965 5.48827 9.65206 5.565L6.98354 5.94195L5.00908 4.65503C4.03309 3.47859 1.82232 4.22787 2.10951 6.06497L3.09396 10.9832C3.10186 11.0233 3.11123 11.063 3.12161 11.1024L5.95265 8.27135L5.83863 7.70243Z" fill="#fff"/>
<path d="M13.6432 14.3004L9.33405 9.99123C9.14242 9.79959 8.89166 9.70287 8.6403 9.7004C8.6464 9.69826 8.65215 9.69589 8.65825 9.69397L6.23643 9.69025L6.12188 9.11839L3.46509 11.7753C3.75796 12.1288 4.20183 12.3678 4.77434 12.3678H8.76486L8.89793 12.3703L12.2355 15.7079C12.6242 16.0963 13.2544 16.0963 13.6431 15.7079C14.0316 15.3193 14.0316 14.689 13.6431 14.3003L13.6432 14.3004Z" fill="#fff"/>
<path d="M2.44403 11.7805C2.37947 11.6338 2.3297 11.4801 2.29787 11.3217L1.59714 7.5499C1.37966 6.34864 -0.200593 6.63484 0.0212957 7.83769L0.698662 11.591C0.959476 12.9521 1.9497 14.1277 3.37273 14.5533C3.73931 14.6597 4.11308 14.7143 4.47773 14.7143L6.88374 14.7249C8.10476 14.73 8.11288 13.1271 6.89773 13.1365L4.61156 13.1238C4.36102 13.1051 4.10044 13.0959 3.84694 13.0201C3.44821 12.9013 3.1083 12.6802 2.84579 12.3949L3.46525 11.7754C3.30296 11.5792 3.18717 11.3482 3.1217 11.1029L2.44403 11.7805Z" fill="#fff"/>
</svg>
