<svg width="15" height="15" viewBox="0 0 15 15" fill="none" xmlns="http://www.w3.org/2000/svg">
<path d="M11.7857 2.67852V0.315981L14.684 3.21424H12.3214C12.1794 3.21424 12.043 3.15779 11.9426 3.05735C11.8422 2.9569 11.7857 2.82058 11.7857 2.67852ZM15 4.28567V13.3928C15 13.8192 14.8307 14.2279 14.5293 14.5293C14.2279 14.8307 13.8192 15 13.3929 15H7.5C8.47396 14.2702 9.17051 13.2305 9.47473 12.0521C9.77906 10.8737 9.673 9.62679 9.17399 8.5167C8.67511 7.40663 7.81307 6.4995 6.72979 5.94465C5.64651 5.3898 4.40672 5.22048 3.21428 5.46431V1.60715C3.21428 1.18084 3.3836 0.772136 3.68494 0.470665C3.9864 0.169323 4.39512 0 4.82142 0H10.7143V2.67858C10.7143 3.10489 10.8836 3.5136 11.1849 3.81507C11.4864 4.11641 11.8951 4.28573 12.3214 4.28573L15 4.28567ZM9.64286 3.74995C9.64286 3.60789 9.58641 3.47157 9.48597 3.37113C9.38552 3.27068 9.2492 3.21424 9.10714 3.21424H5.89286C5.70141 3.21424 5.52456 3.31636 5.4289 3.4821C5.33323 3.64783 5.33323 3.85208 5.4289 4.01781C5.52456 4.18355 5.70142 4.28567 5.89286 4.28567H9.10714C9.2492 4.28567 9.38552 4.22923 9.48597 4.12878C9.58641 4.02834 9.64286 3.89201 9.64286 3.74995ZM12.8571 11.7857C12.8571 11.6436 12.8007 11.5073 12.7003 11.4069C12.5998 11.3064 12.4635 11.25 12.3214 11.25H11.25C11.0586 11.25 10.8817 11.3521 10.786 11.5178C10.6904 11.6836 10.6904 11.8878 10.786 12.0536C10.8817 12.2193 11.0586 12.3214 11.25 12.3214H12.3214C12.4635 12.3214 12.5998 12.265 12.7003 12.1645C12.8007 12.0641 12.8571 11.9278 12.8571 11.7857ZM12.8571 9.10712C12.8571 8.96506 12.8007 8.82874 12.7003 8.72829C12.5998 8.62784 12.4635 8.5714 12.3214 8.5714H11.25C11.0586 8.5714 10.8817 8.67352 10.786 8.83926C10.6904 9.005 10.6904 9.20924 10.786 9.37498C10.8817 9.54071 11.0586 9.64283 11.25 9.64283H12.3214C12.4635 9.64283 12.5998 9.58639 12.7003 9.48595C12.8007 9.3855 12.8571 9.24918 12.8571 9.10712ZM12.8571 6.42854C12.8571 6.28648 12.8007 6.15015 12.7003 6.04971C12.5998 5.94926 12.4635 5.89282 12.3214 5.89282H10.1786C9.98713 5.89282 9.81028 5.99494 9.71461 6.16068C9.61895 6.32642 9.61895 6.53066 9.71461 6.69639C9.81028 6.86213 9.98713 6.96425 10.1786 6.96425H12.3214C12.4635 6.96425 12.5998 6.90781 12.7003 6.80736C12.8007 6.70692 12.8571 6.5706 12.8571 6.42854ZM8.57143 10.7143C8.57143 11.8509 8.1199 12.941 7.3162 13.7448C6.51239 14.5485 5.42232 15 4.28571 15C3.14911 15 2.05904 14.5485 1.25522 13.7448C0.451531 12.941 0 11.8509 0 10.7143C0 9.57766 0.451531 8.48759 1.25522 7.68377C2.05904 6.88007 3.14911 6.42854 4.28571 6.42854C5.42232 6.42854 6.51239 6.88007 7.3162 7.68377C8.1199 8.48759 8.57143 9.57766 8.57143 10.7143ZM2.67857 9.64283C2.67857 9.78489 2.73501 9.92122 2.83546 10.0217C2.9359 10.1221 3.07223 10.1786 3.21429 10.1786C3.35634 10.1786 3.49267 10.1221 3.59311 10.0217C3.69356 9.92122 3.75 9.78489 3.75 9.64283C3.75 9.50078 3.69356 9.36445 3.59311 9.26401C3.49267 9.16356 3.35634 9.10712 3.21429 9.10712C3.07223 9.10712 2.9359 9.16356 2.83546 9.26401C2.73501 9.36445 2.67857 9.50078 2.67857 9.64283ZM5.89286 11.7857C5.89286 11.6436 5.83641 11.5073 5.73597 11.4069C5.63552 11.3064 5.4992 11.25 5.35714 11.25C5.21508 11.25 5.07876 11.3064 4.97832 11.4069C4.87787 11.5073 4.82143 11.6436 4.82143 11.7857C4.82143 11.9278 4.87787 12.0641 4.97832 12.1645C5.07876 12.265 5.21508 12.3214 5.35714 12.3214C5.4992 12.3214 5.63552 12.265 5.73597 12.1645C5.83641 12.0641 5.89286 11.9278 5.89286 11.7857ZM5.73752 9.26245C5.63696 9.16104 5.50004 9.104 5.35714 9.104C5.21423 9.104 5.07732 9.16104 4.97675 9.26245L2.83389 11.4053C2.73249 11.5059 2.67545 11.6428 2.67545 11.7857C2.67545 11.9286 2.73249 12.0655 2.83389 12.1661C2.93446 12.2675 3.07138 12.3245 3.21428 12.3245C3.35718 12.3245 3.49409 12.2675 3.59467 12.1661L5.73752 10.0232C5.83893 9.92266 5.89597 9.78574 5.89597 9.64283C5.89597 9.49993 5.83893 9.36302 5.73752 9.26245Z" fill="#fff"/>
</svg>
