<svg width="19" height="17" viewBox="0 0 19 17" fill="none" xmlns="http://www.w3.org/2000/svg">
<path d="M6.6366 13.5004C6.6366 12.1595 7.06847 10.8868 7.86382 9.81855C8.31834 9.22766 8.86389 8.72765 9.50024 8.31846C8.84121 7.40943 7.88647 6.7047 6.77292 6.36386C7.86382 5.81835 8.61385 4.65927 8.61385 3.36369C8.61385 1.49992 7.11376 0 5.25015 0C3.38638 0 1.88646 1.50008 1.88646 3.36369C1.88646 4.68191 2.63648 5.81831 3.72738 6.36386C1.56827 7.02289 0 9.02303 0 11.3867C0 14.2732 2.34098 14.1595 5.25015 14.1595H6.68205C6.65922 13.9322 6.63655 13.7275 6.63655 13.5004L6.6366 13.5004Z" fill="#fff"/>
<path d="M12.0459 16.2505H12.7733H13.5006C16.0461 16.2505 18.0235 16.1369 18.0235 13.4777C18.0235 11.1141 16.4552 9.11397 14.2961 8.45486C15.387 7.90935 16.137 6.75027 16.137 5.4547C16.137 3.59092 14.637 2.091 12.7733 2.091C10.9096 2.091 9.40965 3.59109 9.40965 5.4547C9.40965 6.77292 10.1597 7.90931 11.2506 8.45486C9.09146 9.11389 7.52319 11.114 7.52319 13.4777C7.52303 16.1369 9.50032 16.2505 12.0456 16.2505H12.0459Z" fill="#fff"/>
</svg>
