<svg width="14" height="17" viewBox="0 0 14 17" fill="none" xmlns="http://www.w3.org/2000/svg">
<path d="M13.1542 11.9129C13.1613 12.3003 13.0133 12.6745 12.743 12.9521C12.4725 13.2298 12.1025 13.3878 11.715 13.3909C11.3276 13.3941 10.9549 13.2421 10.68 12.9689L7.17969 9.20461C7.37727 9.05753 7.56393 8.89626 7.73797 8.72196C8.00935 8.4807 8.26628 8.22379 8.5074 7.95239C8.68617 7.77559 8.85258 7.58657 9.0053 7.38673L12.6864 10.887C12.9796 11.148 13.1496 11.5203 13.1542 11.9129Z" fill="#fff"/>
<path d="M3.48442 10.6455C3.69779 10.8581 3.98667 10.9774 4.28777 10.9774C4.58887 10.9774 4.87777 10.8581 5.09111 10.6455L5.28725 10.4419C5.55139 10.1832 5.66755 9.80903 5.59651 9.44624C5.97076 9.20617 6.32856 8.9415 6.66771 8.65408C6.86504 8.50096 7.05395 8.33731 7.23351 8.16379C7.49002 7.9299 7.73141 7.68852 7.96519 7.43211C8.1387 7.25242 8.30249 7.06366 8.45558 6.86632C8.74117 6.52575 9.00571 6.16808 9.24764 5.79511C9.31447 5.81011 9.38274 5.81774 9.45127 5.81774C9.7508 5.81537 10.0377 5.69632 10.2509 5.48585L10.4471 5.28221C10.6607 5.07095 10.7808 4.783 10.7808 4.48254C10.7808 4.18221 10.6606 3.89425 10.447 3.683L8.05568 1.29173C7.841 1.08481 7.55435 0.969177 7.25614 0.969177C6.95793 0.969177 6.67129 1.08481 6.45647 1.29173L6.25284 1.49537C6.04065 1.70742 5.9212 1.99498 5.92094 2.2949C5.92068 2.39238 5.93594 2.48907 5.9662 2.58167C4.54261 3.52238 3.32394 4.74115 2.38306 6.16481C1.99579 6.06115 1.58248 6.1702 1.29674 6.45145L1.0931 6.65509C0.88289 6.86819 0.764893 7.15534 0.764893 7.45476C0.764893 7.75403 0.88289 8.04133 1.0931 8.25429L3.48442 10.6455Z" fill="#fff"/>
<path d="M1.66727 12.2795C1.46719 12.2795 1.27525 12.3589 1.13384 12.5005C0.992428 12.6419 0.912842 12.8338 0.912842 13.0338V13.5052H6.22558L6.22571 13.0338C6.22571 12.8338 6.14625 12.6419 6.00471 12.5005C5.8633 12.3589 5.67137 12.2795 5.47128 12.2795H1.66727Z" fill="#fff"/>
<path d="M6.38493 14.2566H0.754297C0.554214 14.2566 0.362408 14.3361 0.220868 14.4775C0.0794551 14.619 0 14.8108 0 15.0109V15.6695C0 15.7696 0.0397278 15.8655 0.110498 15.9362C0.18114 16.007 0.277168 16.0467 0.377145 16.0467H6.76112C6.86123 16.0467 6.95712 16.007 7.02789 15.9362C7.09854 15.8655 7.13826 15.7696 7.13826 15.6695V15.0109C7.13826 14.8108 7.05881 14.619 6.91739 14.4775C6.77585 14.3361 6.58405 14.2566 6.38397 14.2566H6.38493Z" fill="#fff"/>
</svg>
