<?xml version="1.0" standalone="no"?>
<!DOCTYPE svg PUBLIC "-//W3C//DTD SVG 20010904//EN"
 "http://www.w3.org/TR/2001/REC-SVG-20010904/DTD/svg10.dtd">
<svg version="1.0" xmlns="http://www.w3.org/2000/svg"
 width="236.000000pt" height="236.000000pt" viewBox="0 0 236.000000 236.000000"
 preserveAspectRatio="xMidYMid meet">
<metadata>
Created by potrace 1.14, written by Peter Selinger 2001-2017
</metadata>
<g transform="translate(0.000000,236.000000) scale(0.100000,-0.100000)"
fill="#000000" stroke="none">
<path d="M860 2172 l0 -187 278 1 c294 0 348 -6 419 -46 55 -30 116 -114 143
-195 l22 -65 173 0 c201 0 189 -8 169 111 -25 145 -87 264 -194 369 -82 81
-207 150 -299 164 -121 20 -226 26 -479 31 l-232 4 0 -187z"/>
<path d="M230 1625 c0 -34 16 -127 27 -155 3 -8 7 -20 8 -26 2 -7 15 -36 30
-65 81 -162 223 -285 397 -345 83 -29 139 -32 558 -38 181 -3 276 -8 300 -17
122 -44 205 -155 214 -285 8 -112 -76 -238 -191 -291 l-58 -27 -323 -1 c-343
-1 -394 5 -456 47 -57 39 -101 102 -135 195 -13 34 -28 63 -34 65 -7 2 -84 4
-172 3 l-160 -1 -3 -43 c-9 -125 76 -319 194 -438 41 -42 152 -114 215 -141
120 -49 168 -54 575 -50 l369 3 79 28 c272 96 452 333 461 608 11 320 -184
599 -475 682 -79 23 -172 28 -497 31 -294 3 -339 8 -413 46 -59 30 -111 107
-141 208 l-12 42 -179 0 -178 0 0 -35z"/>
</g>
</svg>
