<svg width="13" height="15" viewBox="0 0 13 15" fill="none" xmlns="http://www.w3.org/2000/svg">
<path d="M9.5727 7.53824C10.1853 7.64796 10.7325 7.97968 11.1529 8.45211C11.6747 9.04388 12 9.85519 12 10.75V14H1V10.75C1 9.85519 1.32322 9.04388 1.84713 8.45211C2.26756 7.97722 2.81467 7.64795 3.4273 7.53824C3.13364 6.95842 2.96674 6.28549 2.96674 5.56966C2.96674 5.21411 3.00688 4.86572 3.08507 4.53645C3.13789 4.32172 3.2034 4.1117 3.28577 3.91366C3.18229 3.8588 3.08932 3.7848 3.01114 3.69648C2.84006 3.50324 2.73233 3.23357 2.73233 2.94003C2.73233 2.05471 3.25416 1.56078 4.02517 1.29354C4.72015 1.05017 5.62228 1 6.50106 1C7.3799 1 8.27984 1.05015 8.97489 1.29354C9.746 1.56078 10.2677 2.05471 10.2677 2.94003C10.2677 3.23357 10.1621 3.50079 9.98892 3.69648C9.91073 3.78716 9.81784 3.85871 9.71429 3.91366C9.79665 4.11651 9.86425 4.32889 9.91708 4.54843C9.9931 4.87533 10.0332 5.21892 10.0332 5.56966C10.0332 6.28549 9.86634 6.95842 9.57267 7.53824H9.5727ZM3.89215 4.01155C3.93229 4.4578 4.16045 5.04957 4.67594 5.48618C5.08576 5.83221 5.67519 6.07796 6.50119 6.07796C7.31244 6.07796 7.89759 5.83939 8.30526 5.50287C8.83552 5.06617 9.07002 4.46486 9.11015 4.01155H3.89215ZM3.68093 3.4293H9.31935C9.43977 3.4293 9.54752 3.37444 9.6257 3.28611C9.70389 3.19779 9.75246 3.0761 9.75246 2.94008C9.75246 2.37215 9.37852 2.04054 8.82506 1.84721C8.19549 1.62767 7.33994 1.58234 6.50125 1.58234C5.66048 1.58234 4.80492 1.62768 4.17539 1.84721C3.62193 2.04045 3.24799 2.37215 3.24799 2.94008C3.24799 3.0761 3.29656 3.19781 3.37266 3.28611C3.45294 3.37444 3.56068 3.4293 3.68111 3.4293H3.68093ZM3.55843 4.80137C3.50769 5.04711 3.48023 5.30483 3.48023 5.56971C3.48023 6.51225 3.81821 7.36409 4.36325 7.97979C4.91036 8.59778 5.66669 8.97963 6.50106 8.97963C7.3355 8.97963 8.08966 8.59787 8.63681 7.97979C9.18185 7.36416 9.51982 6.51232 9.51982 5.56971C9.51982 5.30718 9.49237 5.05192 9.4438 4.80854C9.28532 5.2166 9.0171 5.63654 8.60935 5.97061C8.12132 6.37387 7.43477 6.66024 6.50093 6.66024C5.55242 6.66024 4.85951 6.36435 4.36949 5.94912C3.97442 5.61504 3.71247 5.20227 3.55824 4.80139L3.55843 4.80137ZM3.75704 8.08477C3.15493 8.11814 2.60992 8.41167 2.20858 8.86506C1.77972 9.34703 1.51567 10.0152 1.51567 10.7501V13.4179H11.4848V10.7501C11.4848 10.0152 11.2186 9.34703 10.7919 8.86506C10.3905 8.41167 9.84544 8.11822 9.24342 8.08477C9.16739 8.19213 9.08494 8.29478 8.9984 8.39017C8.35831 9.11318 7.47523 9.5594 6.50134 9.5594C5.52537 9.5594 4.64228 9.11315 4.00223 8.39017C3.91561 8.29233 3.83324 8.18977 3.75721 8.08477H3.75704Z" fill="#1C1C1C" stroke="#1C1C1C" stroke-width="0.3"/>
</svg>
