<svg width="250" height="43" viewBox="0 0 250 43" fill="none" xmlns="http://www.w3.org/2000/svg">
<path d="M40.429 42.4376V0.529257C40.826 0.529257 41.1849 0.529257 41.5416 0.529257C46.7344 0.529257 51.9273 0.511312 57.1201 0.533743C63.2663 0.558417 68.0688 4.22145 69.4237 9.96834C70.2693 13.5506 69.5044 16.8503 67.3981 19.8493C67.1649 20.1813 66.9204 20.5043 66.6332 20.8946C67.1828 21.433 67.766 21.9063 68.2303 22.4738C71.3662 26.3208 72.1065 30.6343 70.1146 35.152C68.0487 39.8334 64.2735 42.3457 59.1031 42.4197C53.2754 42.5027 47.4478 42.4376 41.6179 42.4376C41.2522 42.4376 40.8866 42.4376 40.4268 42.4376H40.429ZM47.0283 35.8765C47.3737 35.8989 47.6631 35.9303 47.9525 35.9326C51.685 35.937 55.4176 35.9415 59.1502 35.9326C61.4853 35.9258 63.4839 34.4611 64.2241 32.2449C65.4982 28.4248 62.885 24.8448 58.6836 24.7708C54.9892 24.7057 51.2925 24.7573 47.598 24.7618C47.4231 24.7618 47.2459 24.8134 47.0283 24.8493V35.8787V35.8765ZM47.0238 18.1446C47.21 18.1849 47.3491 18.2388 47.4881 18.2388C51.0749 18.241 54.6639 18.2634 58.2507 18.2253C59.5876 18.2096 60.6979 17.5569 61.5772 16.5833C63.2125 14.7776 63.5736 12.678 62.6651 10.4416C61.7141 8.09982 59.8096 7.07695 57.3557 7.04106C54.8905 7.00517 52.423 7.03209 49.9578 7.02985C48.9978 7.02985 48.0399 7.02985 47.026 7.02985V18.1401L47.0238 18.1446Z" fill="white"/>
<path d="M82.9517 42.5702H76.3838V0.529495C77.1487 0.529495 77.9158 0.529495 78.6852 0.529495C84.1787 0.529495 89.6698 0.51155 95.1633 0.536225C100.029 0.558656 103.941 2.48102 106.605 6.61062C111.487 14.1744 107.42 24.2259 98.676 26.321C98.3597 26.3973 98.0502 26.4915 97.6419 26.6036C101.28 31.8526 104.869 37.0319 108.546 42.3347C108.162 42.3796 107.893 42.4356 107.626 42.4356C105.645 42.4424 103.665 42.4065 101.686 42.4581C100.935 42.4783 100.479 42.2427 100.051 41.6124C96.877 36.9512 93.6379 32.3371 90.4841 27.6624C89.9233 26.8324 89.3356 26.5677 88.3823 26.6081C86.6327 26.6821 84.8763 26.6283 82.9539 26.6283V42.5702H82.9517ZM82.9629 19.9886C83.2366 20.0156 83.4182 20.047 83.5977 20.047C87.7789 20.0716 91.9601 20.1838 96.1368 20.0851C99.3781 20.0088 102.023 17.0591 102.068 13.7729C102.112 10.5406 99.488 7.35982 96.3454 7.23196C92.0229 7.057 87.6892 7.14673 83.3599 7.13102C83.2298 7.13102 83.0975 7.23197 82.9606 7.29029V19.9886H82.9629Z" fill="white"/>
<path d="M155.012 22.9068H148.426V16.5072H161.515C161.515 16.8997 161.515 17.2968 161.515 17.6915C161.515 24.0822 161.495 30.4751 161.535 36.8658C161.54 37.7204 161.257 38.1937 160.573 38.6783C148.186 47.4713 130.555 40.4032 127.725 25.4864C125.365 13.046 134.434 1.42886 147.188 0.614604C151.791 0.320754 156.058 1.42662 160.032 4.05781C158.83 5.8725 157.661 7.63336 156.569 9.28206C154.783 8.63155 153.128 7.81729 151.376 7.42699C143.622 5.70202 135.688 10.8859 134.189 18.5462C132.615 26.59 137.778 34.2997 145.735 35.7487C148.675 36.2848 151.538 35.9932 154.272 34.7505C154.579 34.6115 154.974 34.2099 154.979 33.9273C155.026 30.3091 155.01 26.691 155.01 22.9023L155.012 22.9068Z" fill="white"/>
<path d="M0.296947 30.345H6.5306C6.99717 31.4688 7.28429 32.5769 7.87424 33.4899C8.90383 35.087 10.4583 35.9304 12.4031 35.9326C15.7297 35.9349 19.0562 35.9416 22.3828 35.9304C25.4783 35.9192 28.031 33.371 28.0489 30.2979C28.0669 27.3684 25.6017 24.7955 22.5735 24.7148C19.0248 24.6206 15.474 24.6677 11.9253 24.5959C6.10889 24.477 0.933996 19.7193 0.29919 13.9455C0.254328 13.544 0.292461 13.1335 0.292461 12.6467H6.6607C6.69659 12.6916 6.76613 12.7409 6.78183 12.8037C7.80021 16.6776 9.3233 17.9158 13.3318 18.0123C16.8423 18.0975 20.3707 17.9136 23.861 18.2052C30.3526 18.748 34.9421 24.4546 34.5989 31.2266C34.2826 37.4311 28.8856 42.5275 22.5959 42.5476C19.0832 42.5589 15.5682 42.579 12.0554 42.5454C5.5683 42.4803 -0.104573 36.6437 0.29919 30.345H0.296947Z" fill="white"/>
<path d="M179.496 7.1645V0.578674H198.944V42.3727H192.504V7.1645H179.496Z" fill="white"/>
<path d="M174.83 0.690857V42.4624H168.336V0.690857H174.83Z" fill="white"/>
<path d="M122.07 42.4849H115.612V0.697601H122.07V42.4849Z" fill="white"/>
<path d="M33.6366 12.3372H27.3379C26.9005 11.2672 26.6291 10.1973 26.066 9.31571C24.9377 7.54589 23.1881 6.78322 21.111 6.77649C17.9796 6.76528 14.8459 6.77425 11.6719 6.77425V0C15.8777 0.163748 20.0544 -0.0291608 24.1145 0.574241C29.6304 1.39747 33.8497 6.91781 33.6366 12.3372Z" fill="white"/>
<path d="M204.938 0.533936H211.99V7.04798H204.938V0.533936Z" fill="white"/>
<path d="M223.266 42.5858H216.819V36.4373H223.266V42.5858Z" fill="white"/>
<path d="M236.512 42.5791H230.049V36.4688H236.512V42.5791Z" fill="white"/>
<path d="M243.252 42.5454V36.471H249.749V42.5454H243.252Z" fill="white"/>
</svg>
