<svg width="20" height="11" viewBox="0 0 20 11" fill="none" xmlns="http://www.w3.org/2000/svg">
<path d="M0.731215 7.01382L3.95657 10.2725C4.03405 10.3506 4.12623 10.4126 4.22779 10.4549C4.32935 10.4973 4.43828 10.519 4.5483 10.519C4.65832 10.519 4.76726 10.4973 4.86882 10.4549C4.97038 10.4126 5.06256 10.3506 5.14003 10.2725C5.29526 10.1164 5.38239 9.90513 5.38239 9.68495C5.38239 9.46477 5.29526 9.25354 5.14003 9.09739L2.17304 6.10539L19.1666 6.10539C19.3876 6.10539 19.5996 6.01759 19.7559 5.86129C19.9122 5.70499 20 5.49301 20 5.27197V5.27197C20 5.05093 19.9122 4.83894 19.7559 4.68265C19.5996 4.52635 19.3876 4.43854 19.1666 4.43854L2.12303 4.43854L5.14003 1.42988C5.21815 1.3524 5.28015 1.26022 5.32246 1.15866C5.36477 1.0571 5.38656 0.948167 5.38656 0.838146C5.38656 0.728123 5.36477 0.61919 5.32246 0.517629C5.28015 0.416069 5.21815 0.32389 5.14003 0.246413C5.06256 0.168297 4.97038 0.106295 4.86882 0.0639835C4.76726 0.0216719 4.65832 -0.000111967 4.5483 -0.000111977C4.43828 -0.000111987 4.32935 0.0216718 4.22779 0.0639835C4.12623 0.106295 4.03405 0.168297 3.95657 0.246413L0.731215 3.4801C0.262995 3.94891 5.18824e-07 4.58439 4.609e-07 5.24696C4.02976e-07 5.90954 0.262995 6.54502 0.731215 7.01382Z" fill="#F06649"/>
</svg>
