<svg width="18" height="16" viewBox="0 0 18 16" fill="none" xmlns="http://www.w3.org/2000/svg">
<path d="M8.8831 13.6506C5.2337 13.6506 1.99551 11.4747 0.624847 8.08225C0.556366 7.91087 0.556366 7.73962 0.624847 7.56822C1.51581 5.35809 3.21194 3.62757 5.40504 2.70237C6.51876 2.23986 7.70099 1.99999 8.8831 1.99999C10.0139 1.99999 11.1448 2.22276 12.2241 2.65109C14.4514 3.54193 16.2504 5.34096 17.1413 7.56835C17.2098 7.73973 17.2098 7.91098 17.1413 8.08238C15.7706 11.4748 12.5325 13.6507 8.8831 13.6507V13.6506ZM11.71 3.91886C9.84253 3.16497 7.7865 3.18219 5.93611 3.97025C4.17138 4.72415 2.78358 6.07762 1.99545 7.82524C3.21197 10.5494 5.88471 12.2799 8.88303 12.2799C11.8814 12.2799 14.5542 10.5495 15.7706 7.82524C14.9654 6.06051 13.509 4.65558 11.71 3.91885V3.91886Z" fill="#4B5563"/>
<path d="M8.88308 11.0121C7.13546 11.0121 5.69629 9.59004 5.69629 7.82532C5.69629 6.06059 7.13546 4.63852 8.88308 4.63852C10.6307 4.63852 12.0699 6.07769 12.0699 7.82532C12.0699 9.57294 10.6307 11.0121 8.88308 11.0121ZM8.88308 6.00919C7.88935 6.00919 7.06698 6.81445 7.06698 7.82528C7.06698 8.83612 7.88935 9.64138 8.88308 9.64138C9.87681 9.64138 10.6992 8.81902 10.6992 7.82528C10.6992 6.83155 9.87681 6.00919 8.88308 6.00919Z" fill="#4B5563"/>
<line x1="2" y1="14.9393" x2="15.9393" y2="1" stroke="#4B5563" stroke-width="1.5" stroke-linecap="round"/>
</svg>
