<svg width="14" height="14" viewBox="0 0 14 14" fill="none" xmlns="http://www.w3.org/2000/svg">
<path d="M10.9647 0H1.45494C0.652645 0 0 0.652645 0 1.45494V12.5451C0 13.3474 0.652645 14 1.45494 14H12.5451C13.3474 14 14 13.3474 14 12.5451V3.53274L10.9647 0ZM7 11.8983C5.98213 11.8983 5.15711 11.0733 5.15711 10.0554C5.15711 9.03754 5.98213 8.21252 7 8.21252C8.01787 8.21252 8.84289 9.03754 8.84289 10.0554C8.84289 11.0733 8.01787 11.8983 7 11.8983ZM9.32787 5.35107H2.00467V1.9562H9.32787V5.35107Z" fill="white"/>
</svg>
