<svg width="18" height="12" viewBox="0 0 18 12" fill="none" xmlns="http://www.w3.org/2000/svg">
<path d="M8.8831 11.6506C5.2337 11.6506 1.99551 9.47474 0.624847 6.08225C0.556366 5.91087 0.556366 5.73962 0.624847 5.56822C1.51581 3.35809 3.21194 1.62757 5.40504 0.702368C6.51876 0.239861 7.70099 -5.6032e-06 8.8831 -5.6032e-06C10.0139 -5.6032e-06 11.1448 0.222764 12.2241 0.65109C14.4514 1.54193 16.2504 3.34096 17.1413 5.56835C17.2098 5.73973 17.2098 5.91098 17.1413 6.08238C15.7706 9.47477 12.5325 11.6507 8.8831 11.6507V11.6506ZM11.71 1.91886C9.84253 1.16497 7.7865 1.18219 5.93611 1.97025C4.17138 2.72415 2.78358 4.07762 1.99545 5.82524C3.21197 8.54941 5.88471 10.2799 8.88303 10.2799C11.8814 10.2799 14.5542 8.54947 15.7706 5.82524C14.9654 4.06051 13.509 2.65558 11.71 1.91885V1.91886Z" fill="#4B5563"/>
<path d="M8.88308 9.01211C7.13546 9.01211 5.69629 7.59004 5.69629 5.82532C5.69629 4.06059 7.13546 2.63852 8.88308 2.63852C10.6307 2.63852 12.0699 4.07769 12.0699 5.82532C12.0699 7.57294 10.6307 9.01211 8.88308 9.01211ZM8.88308 4.00919C7.88935 4.00919 7.06698 4.81445 7.06698 5.82528C7.06698 6.83612 7.88935 7.64138 8.88308 7.64138C9.87681 7.64138 10.6992 6.81902 10.6992 5.82528C10.6992 4.83155 9.87681 4.00919 8.88308 4.00919Z" fill="#4B5563"/>
</svg>
