<svg width="8" height="10" viewBox="0 0 8 10" fill="none" xmlns="http://www.w3.org/2000/svg">
<path d="M7.47367 0.736829H5.36839V0.715756C5.36839 0.315735 5.05258 0 4.65264 0H3.22105C2.82103 0 2.5053 0.31581 2.5053 0.715756V0.736829H0.400021C0.178929 0.736829 0 0.915768 0 1.13685V1.53687C0 1.75796 0.178939 1.93689 0.400021 1.93689H7.47374C7.69484 1.93689 7.87377 1.75795 7.87377 1.53687V1.13685C7.87369 0.915759 7.69475 0.736829 7.47367 0.736829Z" fill="#1C1C1C"/>
<path d="M6.94735 2.48422H0.926266C0.810472 2.48422 0.726246 2.57894 0.736829 2.69473L1.03157 8.7895C1.06314 9.46319 1.62103 10 2.29471 10H5.56841C6.2421 10 6.8 9.47368 6.83156 8.7895L7.1263 2.69473C7.14737 2.58944 7.05265 2.48415 6.94736 2.48415L6.94735 2.48422ZM3.28417 8.36846C3.28417 8.5579 3.13681 8.70535 2.94729 8.70535C2.75785 8.70535 2.61041 8.55798 2.61041 8.36846L2.61048 4.12634C2.61048 3.9369 2.75785 3.78945 2.94737 3.78945C3.1368 3.78945 3.28425 3.93682 3.28425 4.12634L3.28417 8.36846ZM5.26313 8.36846C5.26313 8.5579 5.11577 8.70535 4.92625 8.70535C4.73681 8.70535 4.58937 8.55798 4.58937 8.36846L4.58944 4.12634C4.58944 3.9369 4.73681 3.78945 4.92632 3.78945C5.11576 3.78945 5.2632 3.93682 5.2632 4.12634L5.26313 8.36846Z" fill="#C2C2C2"/>
</svg>
