<svg width="19" height="10" viewBox="0 0 19 10" fill="none" xmlns="http://www.w3.org/2000/svg">
<path d="M18.216 4.53067C18.216 4.53067 14.3935 0 9.18966 0C3.98615 0 0.16333 4.53067 0.16333 4.53067C-0.0544432 4.78876 -0.0544432 5.21134 0.16333 5.46969C0.16333 5.46927 3.98615 10 9.18966 10C14.3932 10 18.2156 5.46933 18.2156 5.46933C18.4338 5.21124 18.4338 4.78881 18.2159 4.53074L18.216 4.53067ZM9.18966 8.84883C7.06411 8.84883 5.34077 7.12578 5.34077 4.99995C5.34077 2.87411 7.06426 1.15106 9.18966 1.15106C11.3151 1.15106 13.0385 2.87454 13.0385 4.99995C13.0385 7.12535 11.3155 8.84883 9.18966 8.84883Z" fill="#C2C2C2"/>
<path d="M11.005 4.19459C10.5528 4.19459 10.1859 3.82795 10.1859 3.37553C10.1859 3.25737 10.2112 3.14493 10.2562 3.04364C9.93941 2.87051 9.57599 2.77202 9.18971 2.77202C7.9594 2.77202 6.96191 3.76951 6.96191 4.99982C6.96191 6.23012 7.9594 7.2279 9.18971 7.2279C10.42 7.2279 11.4175 6.23041 11.4175 5.0001C11.4175 4.70169 11.3585 4.41697 11.2519 4.15665C11.1741 4.18106 11.0909 4.19459 11.005 4.19459Z" fill="#1C1C1C"/>
</svg>
